<mxfile host="app.diagrams.net" modified="2023-12-12T18:05:39.899Z" agent="Mozilla/5.0 (Windows NT 10.0; Win64; x64) AppleWebKit/537.36 (KHTML, like Gecko) Chrome/118.0.0.0 Safari/537.36" etag="66igK4j3aW9VMgz56q6x" version="22.1.7" type="github">
  <diagram id="1cee9afd-dcdd-cf27-cb82-50d77dad4855" name="Page-1">
    <mxGraphModel dx="1114" dy="678" grid="1" gridSize="10" guides="1" tooltips="1" connect="1" arrows="1" fold="1" page="1" pageScale="1" pageWidth="850" pageHeight="1100" math="0" shadow="0">
      <root>
        <mxCell id="0" />
        <mxCell id="1" parent="0" />
        <mxCell id="4ThGJ15uXNUf0RNEpSx--26" value="" style="rounded=0;whiteSpace=wrap;html=1;fillColor=default;" vertex="1" parent="1">
          <mxGeometry x="315" y="40" width="220" height="550" as="geometry" />
        </mxCell>
        <mxCell id="c1cb8d76720eaeb-3" value="Manage Recovery Strategies" style="ellipse;whiteSpace=wrap;html=1;fillColor=#fff2cc;strokeColor=#d6b656;" parent="1" vertex="1">
          <mxGeometry x="367.5" y="90" width="120" height="80" as="geometry" />
        </mxCell>
        <mxCell id="c1cb8d76720eaeb-4" value="Assign Feasibility Options" style="ellipse;whiteSpace=wrap;html=1;fillColor=#fff2cc;strokeColor=#d6b656;" parent="1" vertex="1">
          <mxGeometry x="367.5" y="190" width="120" height="80" as="geometry" />
        </mxCell>
        <mxCell id="c1cb8d76720eaeb-6" value="Update Recovery Strategies" style="ellipse;whiteSpace=wrap;html=1;fillColor=#fff2cc;strokeColor=#d6b656;" parent="1" vertex="1">
          <mxGeometry x="367.5" y="490" width="120" height="80" as="geometry" />
        </mxCell>
        <mxCell id="4ThGJ15uXNUf0RNEpSx--45" style="rounded=0;orthogonalLoop=1;jettySize=auto;html=1;exitX=1;exitY=0.3333333333333333;exitDx=0;exitDy=0;exitPerimeter=0;endArrow=none;endFill=0;" edge="1" parent="1" source="c1cb8d76720eaeb-15" target="c1cb8d76720eaeb-3">
          <mxGeometry relative="1" as="geometry" />
        </mxCell>
        <mxCell id="4ThGJ15uXNUf0RNEpSx--46" style="rounded=0;orthogonalLoop=1;jettySize=auto;html=1;exitX=1;exitY=0.3333333333333333;exitDx=0;exitDy=0;exitPerimeter=0;entryX=0;entryY=0.5;entryDx=0;entryDy=0;endArrow=none;endFill=0;" edge="1" parent="1" source="c1cb8d76720eaeb-15" target="c1cb8d76720eaeb-26">
          <mxGeometry relative="1" as="geometry" />
        </mxCell>
        <mxCell id="4ThGJ15uXNUf0RNEpSx--47" style="rounded=0;orthogonalLoop=1;jettySize=auto;html=1;exitX=1;exitY=0.3333333333333333;exitDx=0;exitDy=0;exitPerimeter=0;entryX=0;entryY=0.5;entryDx=0;entryDy=0;endArrow=none;endFill=0;" edge="1" parent="1" source="c1cb8d76720eaeb-15" target="c1cb8d76720eaeb-6">
          <mxGeometry relative="1" as="geometry" />
        </mxCell>
        <mxCell id="c1cb8d76720eaeb-15" value="Strategy Manager" style="shape=umlActor;verticalLabelPosition=bottom;labelBackgroundColor=#ffffff;verticalAlign=top;html=1;strokeWidth=4;fillColor=#030203;strokeColor=#000000;fontColor=#000099;" parent="1" vertex="1">
          <mxGeometry x="110" y="150" width="30" height="60" as="geometry" />
        </mxCell>
        <mxCell id="4ThGJ15uXNUf0RNEpSx--50" style="rounded=0;orthogonalLoop=1;jettySize=auto;html=1;exitX=0;exitY=0.3333333333333333;exitDx=0;exitDy=0;exitPerimeter=0;entryX=1;entryY=0.5;entryDx=0;entryDy=0;endArrow=none;endFill=0;" edge="1" parent="1" source="c1cb8d76720eaeb-20" target="c1cb8d76720eaeb-6">
          <mxGeometry relative="1" as="geometry" />
        </mxCell>
        <mxCell id="c1cb8d76720eaeb-20" value="System Admin" style="shape=umlActor;verticalLabelPosition=bottom;labelBackgroundColor=#ffffff;verticalAlign=top;html=1;strokeWidth=4;fillColor=#050300;strokeColor=#000000;fontColor=#000099;" parent="1" vertex="1">
          <mxGeometry x="700" y="250" width="30" height="60" as="geometry" />
        </mxCell>
        <mxCell id="c1cb8d76720eaeb-26" value="&lt;font style=&quot;font-size: 11px;&quot;&gt;Manage Comments/Documents for feasibility&lt;/font&gt;" style="ellipse;whiteSpace=wrap;html=1;fillColor=#fff2cc;strokeColor=#d6b656;" parent="1" vertex="1">
          <mxGeometry x="367.5" y="290" width="120" height="80" as="geometry" />
        </mxCell>
        <mxCell id="4ThGJ15uXNUf0RNEpSx--48" style="rounded=0;orthogonalLoop=1;jettySize=auto;html=1;exitX=1;exitY=0.3333333333333333;exitDx=0;exitDy=0;exitPerimeter=0;entryX=0;entryY=0.5;entryDx=0;entryDy=0;endArrow=none;endFill=0;" edge="1" parent="1" source="4ThGJ15uXNUf0RNEpSx--6" target="c1cb8d76720eaeb-4">
          <mxGeometry relative="1" as="geometry" />
        </mxCell>
        <mxCell id="4ThGJ15uXNUf0RNEpSx--49" style="rounded=0;orthogonalLoop=1;jettySize=auto;html=1;exitX=1;exitY=0.3333333333333333;exitDx=0;exitDy=0;exitPerimeter=0;endArrow=none;endFill=0;" edge="1" parent="1" source="4ThGJ15uXNUf0RNEpSx--6" target="4ThGJ15uXNUf0RNEpSx--28">
          <mxGeometry relative="1" as="geometry" />
        </mxCell>
        <mxCell id="4ThGJ15uXNUf0RNEpSx--6" value="Feasibility Analyst" style="shape=umlActor;verticalLabelPosition=bottom;labelBackgroundColor=#ffffff;verticalAlign=top;html=1;strokeWidth=4;fillColor=#000000;strokeColor=#000000;fontColor=#000099;" vertex="1" parent="1">
          <mxGeometry x="110" y="330" width="30" height="60" as="geometry" />
        </mxCell>
        <mxCell id="4ThGJ15uXNUf0RNEpSx--27" value="Recovery Strategy Management&amp;nbsp;" style="text;html=1;align=center;verticalAlign=middle;resizable=0;points=[];autosize=1;strokeColor=none;fillColor=none;" vertex="1" parent="1">
          <mxGeometry x="327.5" y="50" width="200" height="30" as="geometry" />
        </mxCell>
        <mxCell id="4ThGJ15uXNUf0RNEpSx--28" value="&lt;font style=&quot;font-size: 11px;&quot;&gt;Manage reasoning and details for feasibility option&lt;/font&gt;" style="ellipse;whiteSpace=wrap;html=1;fillColor=#fff2cc;strokeColor=#d6b656;" vertex="1" parent="1">
          <mxGeometry x="367.5" y="390" width="120" height="80" as="geometry" />
        </mxCell>
      </root>
    </mxGraphModel>
  </diagram>
</mxfile>
